<svg width="275" height="254" viewBox="0 0 275 254" fill="none" xmlns="http://www.w3.org/2000/svg">
<path d="M104.309 240.717C89.6531 245.91 74.8548 248.309 59.0702 245.31C41.4766 241.966 26.2166 226.91 17.5941 211.895C14.3904 206.318 11.8399 200.086 12.1732 193.665C12.9486 178.83 26.9637 177.172 38.8603 179.571C45.5664 180.921 51.724 183.992 57.8118 187.035C67.9188 192.089 79.7747 194.574 88.836 201.58C91.8766 203.937 94.16 206.77 97.6931 208.485C103.189 211.155 109.463 212.416 115.108 214.846C119.927 216.931 125.315 220.361 125.322 225.61C125.322 230.993 119.706 234.424 114.771 236.567C111.278 238.094 107.801 239.486 104.309 240.717Z" fill="url(#paint0_linear)"/>
<path d="M50.3636 49.3624C74.3727 13.9801 124.019 -0.226601 164.261 13.0764C183.666 19.4945 199.928 32.8588 214.928 46.7322C228.149 58.9597 240.976 72.1482 250.005 87.8673C256.171 98.597 260.583 111.459 263.699 123.466C268.358 141.445 264.127 164.61 240.886 162.913C235.434 162.515 230.716 160.554 225.617 158.839C221.491 157.448 217.449 158.283 213.166 157.603C202.385 155.896 192 151.927 182.18 147.278C162.166 137.795 143.879 124.912 123.297 116.602C106.429 109.801 88.4161 106.29 70.2291 106.257C62.5565 106.245 54.4889 106.782 47.6255 103.351C30.7091 94.8874 38.3162 72.0651 44.634 59.2268C46.3078 55.8071 48.2225 52.5106 50.3636 49.3624Z" fill="url(#paint1_linear)"/>
<path d="M238.61 54.7031C242.563 58.2831 258.093 68.0562 258.392 56.5874C258.462 53.7302 257.166 50.956 255.403 48.8636C253.385 46.4619 251.097 45.2021 249.521 42.404C247.593 39.0256 245.399 35.8504 242.966 32.9195C237.992 26.8191 232.186 21.1826 225.14 18.6712C220.198 16.9119 211.832 17.3543 209.484 23.6877C206.065 32.9074 220.687 34.5967 225.147 37.9567C229.379 41.1369 231.776 46.6016 235.128 50.9446C236.188 52.314 237.353 53.5722 238.61 54.7031Z" fill="url(#paint2_linear)"/>
<path d="M165.516 43.4889C173.888 48.4182 180.169 55.7965 187.802 61.7387C200.511 71.6303 217.93 73.654 232.504 80.5329C247.364 87.5516 258.585 98.4592 263.659 114.18C270.213 134.472 270.836 158.604 265.267 179.465C259.135 202.429 244.734 217.682 223.677 227.855C202.633 238.021 179.32 242.765 156.069 243.744C153.825 243.841 151.585 243.892 149.337 243.907C98.8252 244.2 31.5915 226.421 14.3945 172.159C14.2368 171.663 14.0858 171.167 13.9343 170.665C12.1622 164.619 11.1203 158.383 10.8308 152.09C9.74916 129.781 13.6538 105.156 21.4754 84.2419C26.7361 70.1616 38.0643 58.2561 50.0011 49.7732C66.7723 37.8558 87.2356 34.8144 107.603 33.3845C122.684 32.3263 139.646 31.9397 153.908 37.7085C157.916 39.3426 161.796 41.2748 165.516 43.4889Z" fill="url(#paint3_linear)"/>
<path d="M176.879 95.9624C176.879 95.9624 176.199 105.555 175.248 119.069C174.499 129.679 173.577 142.707 172.668 155.434C172.448 158.558 172.219 161.656 172.002 164.698C171.483 172.049 170.981 179.056 170.532 185.144C170.138 190.263 169.8 194.746 169.544 198.224C169.203 202.681 168.973 205.507 168.888 205.996C168.389 209.228 158.878 215.503 136.969 215.503C115.07 215.503 102.327 215.844 98.0875 210.587C97.4508 209.786 96.6796 206.675 95.8362 201.946C94.0017 191.677 91.7997 173.815 89.8175 155.788C88.5803 144.594 87.412 133.348 86.4603 123.798C84.9802 109.017 83.9891 98.3416 83.9891 98.3416L110.601 97.6623L144.439 96.7927L176.879 95.9624Z" fill="#FB4C47"/>
<path d="M175.25 119.07C174.501 129.679 173.579 142.708 172.67 155.434C164.194 157.732 139.078 162.392 89.8195 155.789C88.5823 144.595 87.414 133.348 86.4623 123.799C99.4251 125.292 141.412 128.974 175.25 119.07Z" fill="#D9423D"/>
<path d="M169.544 198.225C169.202 202.679 168.973 205.507 168.891 205.996C168.388 209.229 158.878 215.504 136.969 215.504C115.07 215.504 102.33 215.845 98.0904 210.588C97.4504 209.783 96.6792 206.676 95.8358 201.947C107.397 204.027 139.916 208.343 169.544 198.225Z" fill="#D9423D"/>
<path d="M179.757 97.1593C178.238 98.8428 165.849 104.628 132.051 106.315C128.887 106.476 125.829 106.558 122.937 106.571C97.481 106.775 82.7657 102.131 82.4671 101.235C82.1291 100.201 81.4497 93.4082 82.3063 92.5681L82.3194 92.555C83.1366 91.8593 92.8341 96.8475 120.735 96.0303C124.175 95.9352 127.88 95.7448 131.887 95.4462C164.721 93.0144 175.248 88.0032 177.936 87.8391C178.251 87.8129 178.455 87.8523 178.579 87.977C179.757 89.1715 181.293 95.4462 179.757 97.1593Z" fill="#FF807C"/>
<path d="M177.898 88.655C176.717 93.082 142.403 101.234 125.597 100.879C124.252 100.853 122.827 100.814 121.347 100.732C104.394 99.9573 80.2665 96.4655 82.3044 92.5668L82.3176 92.5537C82.5342 92.2124 89.3306 82.2293 116.402 79.4858C118.046 79.3217 119.769 79.1872 121.564 79.0789C122.499 79.01 123.451 78.9673 124.429 78.9148C124.606 78.9148 124.783 78.9148 124.96 78.9017C125.938 78.859 126.943 78.8327 127.976 78.8196C129.171 78.7934 130.339 78.7802 131.478 78.7802C164.039 78.5472 177.366 83.6963 177.937 87.8378C177.977 88.1233 177.967 88.3957 177.898 88.655Z" fill="#C63F3B"/>
<path d="M139.592 99.7332C139.057 100.621 136.198 101.403 132.896 101.807C129.645 102.207 125.942 102.224 123.605 101.597C122.552 101.319 121.77 100.92 121.423 100.377C121.235 100.082 120.959 99.2621 120.613 98.0463C120.007 95.9556 119.175 92.6827 118.259 88.9009C118.155 88.4507 118.038 87.9964 117.929 87.5253C117.382 85.262 116.809 82.8263 116.22 80.3864C115.856 78.8552 115.472 77.3239 115.112 75.8095C114.903 74.9555 114.698 74.1184 114.506 73.3023C113.762 70.286 113.052 67.4507 112.412 65.0991C111.601 62.0492 110.908 59.786 110.439 58.9363C110.335 58.7596 110.247 58.6376 110.18 58.5871C110.076 58.5156 109.921 58.4819 109.7 58.4483C108.471 58.2548 105.495 58.4483 101.997 58.7091C94.9708 59.2307 85.9053 60.0132 85.0944 58.3599C84.5929 57.3335 84.2125 55.0703 84.1122 52.563C83.9199 48.6592 84.3839 44.2042 85.9596 43.1399C87.1549 42.3407 94.0053 41.5414 101.478 41.188C105.357 41.0324 109.403 40.9819 112.914 41.1207C117.382 41.2932 120.976 41.7643 122.289 42.6856C122.861 43.0895 123.588 44.3262 124.437 46.173C125.649 48.8022 127.083 52.6472 128.587 57.1231C129.469 59.807 130.389 62.6971 131.308 65.6544C132.203 68.5991 133.084 71.6112 133.92 74.5895C134.058 75.0397 134.175 75.4772 134.297 75.9315C134.455 76.5036 134.631 77.0799 134.786 77.652C135.321 79.6208 135.839 81.5559 136.324 83.3984C136.616 84.5132 136.892 85.5775 137.135 86.6208C137.807 89.25 138.363 91.6184 138.798 93.604C139.504 97.0325 139.835 99.3167 139.592 99.7332Z" fill="#F5C827"/>
<path d="M138.581 93.4313L130.904 95.2344L120.237 97.7295C119.63 95.7066 118.791 92.54 117.868 88.8808L128.252 85.8485L136.086 83.557C137.114 87.3301 137.97 90.7531 138.581 93.4313Z" fill="#FFAE00"/>
<path d="M134.22 75.6666C132.045 76.2245 129.231 76.9654 126.363 77.6845C122.658 78.6433 118.866 79.6152 116.296 80.2864C115.936 78.6956 115.554 77.1092 115.194 75.5402C114.986 74.6555 114.788 73.7882 114.597 72.9427L123.86 68.5408L131.253 65.0237C132.144 68.0701 133.019 71.1907 133.843 74.2763C133.98 74.747 134.1 75.1959 134.22 75.6666Z" fill="#FFAE00"/>
<path d="M128.768 57.2151L121.383 60.7117L112.249 65.0238C111.421 62.0379 110.713 59.8221 110.234 58.9902L118.272 51.964L124.529 46.4905C125.767 49.0646 127.231 52.833 128.768 57.2151Z" fill="#FFAE00"/>
<path d="M112.414 41.1193C111.999 43.528 111.493 46.4848 110.931 49.5621C110.402 52.4816 109.856 55.4883 109.346 58.2251C108.178 58.034 105.341 58.2251 102.006 58.4825L101.775 50.1435L101.512 41.1899C105.206 41.0321 109.067 40.9822 112.414 41.1193Z" fill="#FFAE00"/>
<g opacity="0.309998">
<g opacity="0.309998">
<path opacity="0.309998" d="M139.206 86.0692C147.404 86.4302 155.516 87.3392 163.59 88.8258C166.153 89.2984 167.252 85.3735 164.673 84.8976C156.242 83.3421 147.768 82.3707 139.206 81.9933C136.584 81.8784 136.591 85.9543 139.206 86.0692Z" fill="white"/>
</g>
</g>
<g opacity="0.300003">
<g opacity="0.300003">
<path opacity="0.300003" d="M164.647 116.715C164.181 131.598 163.233 146.448 161.808 161.268C161.556 163.877 165.635 163.86 165.881 161.268C167.312 146.448 168.257 131.598 168.723 116.715C168.805 114.093 164.729 114.093 164.647 116.715Z" fill="#FFC7D3"/>
</g>
<g opacity="0.300003">
<path opacity="0.300003" d="M163.704 172.57C166.326 172.57 166.33 168.494 163.704 168.494C161.082 168.494 161.076 172.57 163.704 172.57Z" fill="#FFC7D3"/>
</g>
</g>
<defs>
<linearGradient id="paint0_linear" x1="10.8722" y1="195.712" x2="26.0783" y2="248.511" gradientUnits="userSpaceOnUse">
<stop stop-color="#FFD0D0"/>
<stop offset="1" stop-color="#FFF7F7"/>
</linearGradient>
<linearGradient id="paint1_linear" x1="294.898" y1="54.5164" x2="124.706" y2="15.2167" gradientUnits="userSpaceOnUse">
<stop stop-color="#FFF7F7"/>
<stop offset="1" stop-color="#FFD0D0"/>
</linearGradient>
<linearGradient id="paint2_linear" x1="258.795" y1="56.3862" x2="200.404" y2="31.4465" gradientUnits="userSpaceOnUse">
<stop stop-color="#FFD0D0"/>
<stop offset="1" stop-color="#FFFBFC"/>
</linearGradient>
<linearGradient id="paint3_linear" x1="245.613" y1="220.851" x2="10.8788" y2="84.917" gradientUnits="userSpaceOnUse">
<stop stop-color="#FFCFCF"/>
<stop offset="1" stop-color="#FFF8F8"/>
</linearGradient>
</defs>
</svg>
