<svg width="998" height="647" viewBox="0 0 998 647" fill="none" xmlns="http://www.w3.org/2000/svg">
<path d="M799.698 574.262C799.698 574.262 797.344 574.262 799.698 562.483C802.052 550.701 802.052 532.638 806.764 527.14C811.477 521.645 827.185 515.361 838.964 509.081C850.746 502.797 857.812 494.944 862.524 494.944C867.237 494.944 865.665 502.011 871.949 494.944C878.233 487.874 879.015 494.158 885.299 494.944L891.583 495.727C891.583 495.727 890.011 502.011 891.583 505.937C893.152 509.863 895.51 510.649 901.004 509.081C906.502 507.509 913.572 493.008 915.927 491.622C918.284 490.232 921.425 505.937 922.997 511.435C924.565 516.933 935.561 531.07 939.487 538.922C943.414 546.775 914.355 582.9 908.074 584.472C901.79 586.04 882.941 582.9 879.801 584.472C876.661 586.04 869.693 570.335 869.251 568.764C868.808 567.195 864.879 569.55 864.879 569.55C864.879 569.55 855.458 562.483 849.174 563.265C842.89 564.051 831.111 570.335 827.185 571.121C823.259 571.907 813.049 571.121 813.049 571.121L807.55 575.834L799.698 574.262Z" fill="#F44A45"/>
<path d="M881.898 606.723C881.898 606.723 883.47 600.439 883.993 597.299C884.516 594.159 890.277 593.109 890.277 593.109C890.277 593.109 891.845 599.394 890.277 602.534C888.705 605.678 881.898 606.723 881.898 606.723Z" fill="#F44A45"/>
<path d="M942.628 616.671C942.628 616.671 943.674 608.295 948.386 606.723C953.098 605.152 969.852 593.633 974.041 593.11C978.231 592.587 974.041 602.534 974.041 602.534C974.041 602.534 957.81 614.053 953.624 616.671C949.435 619.288 942.042 619.425 942.628 616.671Z" fill="#167C51"/>
<path d="M983.989 593.091C983.989 593.091 988.178 585.256 988.701 581.07C989.223 576.881 992.89 573.74 992.89 573.74C992.89 573.74 994.458 582.621 994.985 583.414C995.508 584.21 997.076 585.782 997.076 588.922C997.076 592.063 985.034 597.824 983.989 597.298C982.943 596.775 982.434 596.22 983.989 593.091Z" fill="#167C51"/>
<path d="M876.661 451.228C876.661 451.228 880.064 460.129 881.373 460.652C882.681 461.175 894.723 463.792 898.127 466.41C901.53 469.027 899.699 472.694 898.127 474.266C896.555 475.834 899.435 478.451 901.79 478.192C904.148 477.929 906.765 479.237 907.551 480.809C908.337 482.378 912.786 484.213 914.095 483.164C915.403 482.118 916.975 477.929 918.807 477.406C920.638 476.883 926.659 475.834 927.182 477.406C927.708 478.974 931.371 482.209 932.943 483.472C934.512 484.735 938.441 484.567 941.319 483.472C944.199 482.378 940.01 481.332 938.441 480.286C936.869 479.237 934.512 477.665 933.203 473.48C931.894 469.29 933.729 467.982 930.326 466.15C926.922 464.315 912.263 454.368 908.337 453.322C904.407 452.273 891.057 455.417 887.13 454.108C883.204 452.799 883.204 450.442 882.159 449.919C881.11 449.396 874.829 446.789 876.661 451.228Z" fill="#167C51"/>
<path d="M938.179 465.102C938.179 465.102 942.369 465.056 944.463 466.519C946.554 467.982 948.649 468.505 946.818 469.028C944.986 469.551 939.751 471.386 938.179 469.814C936.607 468.242 935.807 464.94 938.179 465.102Z" fill="#035755"/>
<path d="M848.218 476.643C848.218 476.643 851.492 473.587 854.113 473.587C856.734 473.587 860.007 475.113 860.007 475.113C860.007 475.113 855.204 477.734 853.022 478.39C850.839 479.043 846.65 477.895 848.218 476.643Z" fill="#035755"/>
<path d="M835.556 476.082C835.556 476.082 838.177 473.148 840.577 472.713C842.98 472.275 846.689 473.583 846.689 473.583C846.689 473.583 844.071 474.868 841.124 476.082C838.177 477.296 834.517 477.11 835.556 476.082Z" fill="#035755"/>
<path d="M834.463 478.579C834.463 478.579 837.084 478.986 838.175 478.579C839.266 478.172 838.831 481.228 837.302 481.228C835.772 481.228 833.372 481.077 834.463 478.579Z" fill="#035755"/>
<path d="M825.045 475.041C825.045 475.041 827.463 473.757 829.677 473.297C831.894 472.838 835.185 472.518 834.547 473.297C833.908 474.076 832.901 475.824 831.087 476.101C829.277 476.378 823.101 475.932 825.045 475.041Z" fill="#035755"/>
<path d="M794.347 466.519C794.347 466.519 797.084 464.466 801.308 465.095C805.536 465.726 811.006 466.751 814.487 467.765C817.967 468.782 823.192 472.754 825.427 472.624C827.665 472.494 829.157 473.764 826.423 474.112C823.687 474.459 815.22 474.677 811.126 473.586C807.027 472.494 802.54 469.933 799.312 469.684C796.087 469.438 792.621 467.403 794.347 466.519Z" fill="#0C6C44"/>
<path d="M837.956 464.975C837.956 464.975 835.009 456.775 834.626 453.28C834.244 449.789 838.938 441.491 839.486 440.074C840.03 438.653 850.292 438.87 852.91 437.888C855.531 436.905 852.036 442.365 849.528 442.365C847.015 442.365 842.689 442.909 841.033 443.674C839.373 444.438 840.247 446.73 840.577 446.73C840.903 446.73 846.033 446.838 846.689 447.495C847.345 448.151 844.156 450.115 844.222 450.659C844.289 451.207 847.236 456.445 847.345 458.084C847.454 459.722 846.58 464.305 846.033 463.87C845.489 463.434 842.868 461.796 842.542 460.487C842.212 459.175 841.229 456.993 839.921 456.775C838.612 456.554 839.265 460.487 839.265 461.905C839.265 463.322 838.405 466.259 837.956 464.975Z" fill="#0C6C44"/>
<path d="M852.91 449.351C852.91 449.351 855.423 449.678 856.184 450.881C856.949 452.081 855.188 452.407 853.939 452.299C852.693 452.19 850.946 449.569 852.91 449.351Z" fill="#035755"/>
<path d="M861.645 445.421C861.645 445.421 861.536 442.148 861.645 440.4C861.754 438.653 861.971 436.579 862.845 436.579C863.719 436.579 865.792 440.183 865.466 441C865.14 441.818 864.361 444.765 863.547 445.421C862.736 446.077 861.68 446.955 861.645 445.421Z" fill="#0C6C44"/>
<path d="M867.104 450.224C867.104 450.224 869.396 450.245 870.378 450.835C871.36 451.424 871.908 452.01 871.36 452.319C870.817 452.624 868.413 452.445 867.761 452.319C867.104 452.189 865.701 450.122 867.104 450.224Z" fill="#035755"/>
<path d="M804.223 437.771C804.545 437.655 808.7 436.034 811.426 436.034C814.156 436.034 816.777 429.157 819.942 428.719C823.106 428.283 825.485 422.171 827.899 421.189C830.313 420.206 835.955 423.041 835.373 423.915C834.787 424.789 832.604 427.192 831.731 428.827C830.857 430.466 831.513 435.052 832.169 436.578C832.822 438.108 835.004 440.181 834.625 440.62C834.243 441.055 828.759 451.971 827.899 453.718C827.04 455.465 825.184 456.883 822.889 456.991C820.598 457.104 812.977 456.339 810.893 455.356C808.809 454.374 807.279 450.086 806.735 448.683C806.188 447.276 804.879 445.42 804.77 443.567C804.658 441.711 803.479 438.038 804.223 437.771Z" fill="#167C51"/>
<path d="M762.308 422.716C762.308 422.716 769.511 425.228 771.041 426.428C772.571 427.628 776.827 433.305 779.448 436.144C782.065 438.982 786.433 442.038 786.76 443.347C787.086 444.659 793.595 454.484 793.889 455.684C794.184 456.884 795.233 462.126 793.889 462.234C792.545 462.343 785.56 460.487 784.36 458.849C783.156 457.214 777.153 451.754 776.935 449.351C776.718 446.951 774.206 439.509 772.897 437.772C771.588 436.035 768.967 436.144 768.093 434.944C767.22 433.74 764.929 428.284 763.399 427.846C761.873 427.411 761.325 422.365 762.308 422.716Z" fill="#0C6C44"/>
<path d="M792.216 448.369C792.216 448.369 792.216 451.572 793.416 452.32C794.616 453.064 795.272 454.046 795.711 453.72C796.146 453.39 796.472 452.099 796.146 450.836C795.819 449.569 792.118 447.032 792.216 448.369Z" fill="#035755"/>
<path d="M714.601 407.979V415.512C714.601 417.147 719.373 420.561 719.608 420.982C719.84 421.406 721.152 414.199 721.152 412.891C721.152 411.582 714.601 405.687 714.601 407.979Z" fill="#0C6C44"/>
<path d="M542.177 308.83C542.177 308.83 544.388 309.402 545.124 309.647C545.861 309.893 548.809 311.121 548.482 311.451C548.152 311.777 544.798 311.942 544.468 311.942C544.142 311.942 542.096 312.594 541.686 311.942C541.275 311.286 539.721 308.584 540.047 308.83C540.377 309.075 541.177 308.567 542.177 308.83Z" fill="#035755"/>
<path d="M510.087 298.432C510.087 298.432 513.115 300.071 514.097 300.316C515.079 300.562 516.146 302.362 516.637 303.099C517.129 303.836 514.588 303.018 514.097 302.688C513.606 302.362 511.395 302.197 510.659 301.625C509.922 301.053 509.315 298.025 510.087 298.432Z" fill="#035755"/>
<path d="M497.639 288.527C497.639 288.527 499.032 289.835 499.439 290.327C499.85 290.818 498.867 293.604 499.439 294.502C500.014 295.404 498.643 297.533 498.59 297.042C498.541 296.551 496.902 294.667 496.246 293.519C495.594 292.376 495.429 291.719 495.594 290.572C495.755 289.428 496.846 287.765 497.639 288.527Z" fill="#035755"/>
<path d="M496.003 281.403C496.003 281.403 494.939 283.041 496.003 283.694C497.066 284.35 498.869 285.333 498.869 285.333C498.869 285.333 499.031 284.431 498.869 283.368C498.704 282.305 496.473 280.013 496.003 281.403Z" fill="#035755"/>
<path d="M481.676 291.391C481.676 291.391 482.413 292.58 482.904 292.724C483.395 292.865 484.542 292.149 484.949 292.058C485.36 291.963 483.314 290.98 483.314 290.735C483.314 290.489 481.676 291.391 481.676 291.391Z" fill="#035755"/>
<path d="M475.371 293.684C475.371 293.684 475.781 293.154 476.925 292.722C478.073 292.291 479.466 292.375 479.873 292.291C480.283 292.21 479.957 293.028 479.22 293.684C478.483 294.34 477.501 295.238 476.027 295.403C474.553 295.568 474.308 296.221 474.553 295.568C474.799 294.912 474.41 294.379 475.371 293.684Z" fill="#035755"/>
<path d="M455.231 248.272C455.231 248.272 455.778 246.308 456.76 244.669C457.743 243.034 457.304 238.339 457.631 237.574C457.96 236.81 460.908 232.554 461.016 232.224C461.125 231.897 453.813 225.129 453.483 224.147C453.157 223.164 453.701 220.217 454.139 219.126C454.574 218.035 457.304 212.684 457.852 212.466C458.395 212.249 460.034 212.466 460.034 212.466C460.034 212.466 460.69 214.54 461.564 215.087C462.434 215.631 464.511 216.396 465.055 216.943C465.602 217.487 466.146 224.694 466.364 225.347C466.585 226.003 470.406 233.971 470.841 234.192C471.279 234.41 475.753 237.901 475.862 238.339C475.97 238.774 474.879 245.543 474.335 245.873C473.788 246.199 468.767 247.616 468.22 247.725C467.676 247.837 466.585 248.929 465.381 249.146C464.181 249.364 455.231 248.272 455.231 248.272Z" fill="#167C51"/>
<path d="M440.381 237.902C440.381 237.902 441.799 232.773 442.673 231.681C443.546 230.587 446.167 228.622 447.15 228.187C448.132 227.752 453.5 226.657 453.381 227.204C453.262 227.752 452.827 231.352 452.827 231.899C452.827 232.443 454.135 235.064 454.027 235.829C453.918 236.593 451.297 241.067 450.314 241.723C449.332 242.379 442.346 244.014 442.129 243.362C441.911 242.706 441.581 240.523 441.581 240.523C441.581 240.523 440.816 239.65 440.381 239.32C439.946 238.993 440.381 237.902 440.381 237.902Z" fill="#167C51"/>
<path d="M453.381 211.811C453.381 211.811 451.514 213.709 451.188 214.288C450.862 214.867 450.206 217.162 450.532 217.049C450.862 216.94 451.953 216.288 452.718 215.849C453.479 215.414 453.823 213.667 454.034 213.228C454.244 212.793 453.381 211.811 453.381 211.811Z" fill="#035755"/>
<path d="M467.565 201.987C467.565 201.987 465.6 204.061 465.274 204.825C464.944 205.59 463.979 207.117 464.625 207.225C465.274 207.338 467.456 205.917 467.565 205.808C467.674 205.699 467.891 205.594 468.439 204.611C468.982 203.625 467.565 201.987 467.565 201.987Z" fill="#035755"/>
<path d="M602.82 162.797C602.82 162.797 603.694 161.159 604.129 160.832C604.567 160.506 606.532 159.741 606.859 159.741C607.188 159.741 607.732 162.471 606.859 162.797C605.985 163.124 603.476 164.545 603.476 164.545C603.476 164.545 602.518 163.338 602.82 162.797Z" fill="#41294A"/>
<path d="M609.259 146.75C609.259 146.75 610.459 141.838 611.658 140.417C612.862 139 620.504 128.628 621.265 128.411C622.03 128.193 624.869 126.772 626.29 126.228C627.707 125.681 626.29 131.684 626.29 131.684C626.29 131.684 626.725 131.796 627.707 131.575C628.69 131.358 630.654 131.031 630.654 131.684V135.07C630.654 135.07 621.921 141.4 621.813 142.056C621.704 142.712 621.374 148.498 621.374 148.498C621.813 150.024 623.451 153.519 623.451 154.066C623.451 154.61 623.342 156.792 623.342 156.792C623.342 156.792 618.865 155.592 617.883 155.157C616.9 154.719 613.953 150.245 613.406 150.024C612.862 149.806 611.006 148.715 610.459 148.28C609.915 147.842 609.259 146.75 609.259 146.75Z" fill="#0C6C44"/>
<path d="M630.657 125.354C630.657 125.354 629.457 126.554 629.018 127.428C628.583 128.301 630.657 129.284 631.639 129.94C632.622 130.592 634.478 130.484 635.243 129.94C636.008 129.392 639.281 126.193 639.281 126.193C639.173 125.463 636.334 124.263 635.352 124.263C634.369 124.263 630.657 125.354 630.657 125.354Z" fill="#0C6C44"/>
<path d="M645.188 121.315C645.188 121.315 639.701 122.297 639.294 122.953C638.887 123.606 643.157 125.353 644.171 125.353C645.188 125.353 646.613 125.683 647.83 125.353C649.051 125.027 651.083 122.406 651.083 122.406C651.083 122.406 648.006 120.736 645.188 121.315Z" fill="#0C6C44"/>
<path d="M618.809 484.283C618.809 484.283 616.518 489.851 615.862 490.342C615.206 490.834 609.311 496.398 607.837 497.381C606.364 498.367 604.725 499.511 604.234 500.658C603.743 501.805 601.616 505.079 601.943 505.735C602.269 506.388 603.743 508.191 603.743 509.009C603.743 509.826 601.616 513.265 601.125 515.068C600.634 516.868 599.652 524.236 600.143 525.219C600.634 526.201 602.269 531.604 604.073 532.261C605.872 532.917 614.223 520.471 615.206 518.177C616.188 515.886 615.37 514.903 616.679 513.921C617.991 512.938 619.465 500.493 619.956 499.019C620.448 497.546 622.083 496.728 622.247 496.072C622.412 495.416 620.939 484.774 620.609 484.283C620.283 483.792 620.448 482.974 618.809 484.283Z" fill="#167C51"/>
<path d="M601.291 400.773C601.291 400.773 601.782 401.264 603.747 402.412C605.712 403.556 608.168 401.429 610.298 401.591C612.424 401.756 621.269 399.135 622.904 399.135C624.543 399.135 625.199 399.654 624.543 402.752C623.887 405.85 620.613 419.278 619.304 421.734C617.992 424.19 603.151 438.27 600.01 441.383C596.87 444.495 589.828 453.172 589.667 453.989C589.502 454.81 590.158 467.582 590.81 469.217C591.467 470.856 592.775 474.624 592.94 476.75C593.105 478.88 592.284 493.781 591.631 495.746C590.975 497.711 575.748 510.318 575.092 512.121C574.435 513.921 573.453 516.868 574.109 517.525C574.765 518.177 576.73 518.998 576.074 521.454C575.418 523.91 574.334 526.037 573.892 527.023C573.453 528.005 570.179 528.005 568.871 529.64C567.558 531.279 567.888 535.208 566.906 537.991C565.923 540.777 563.138 543.724 561.664 546.18C560.19 548.636 555.769 552.236 554.622 554.692C553.478 557.152 551.675 559.116 551.022 560.099C550.366 561.081 538.25 562.064 535.794 563.046C533.338 564.029 532.191 566.155 530.391 566.32C528.588 566.485 524.331 566.32 524.331 566.32C524.331 566.32 521.219 561.899 520.893 560.26C520.563 558.625 518.763 556.004 519.254 553.383C519.746 550.762 512.704 533.408 511.721 531.279C510.739 529.149 510.413 515.886 510.248 512.939C510.086 509.991 504.143 505.244 504.739 503.279C505.335 501.314 505.5 494.108 505.827 492.469C506.157 490.834 508.939 484.683 509.756 482.764C510.577 480.845 510.739 477.897 510.739 476.259C510.739 474.624 509.265 472.82 509.265 471.02C509.265 469.217 509.43 466.27 509.43 465.778C509.43 465.287 499.441 450.06 498.458 448.751C497.476 447.442 497.311 446.13 497.476 444.004C497.641 441.874 498.02 439.088 497.42 438.27C496.82 437.453 496.876 429.92 497.42 428.446C497.967 426.972 494.529 423.043 494.529 423.043L486.669 422.06C486.669 422.06 482.74 416.983 481.922 416.822C481.101 416.657 478.154 416.166 477.336 416.657C476.519 417.148 473.242 418.131 472.259 418.131H466.2C466.2 418.131 464.4 420.913 462.761 421.243C461.126 421.569 459.161 421.895 459.161 421.895L456.54 420.26C456.54 420.26 452.119 419.439 450.481 419.769C448.846 420.095 446.716 421.404 446.06 421.404C445.407 421.404 443.113 421.404 442.621 421.243C442.13 421.078 426.902 406.833 425.594 404.868C424.281 402.903 419.369 396.026 419.208 395.205C419.043 394.387 418.387 387.184 418.387 387.184L416.096 385.216C416.096 385.216 416.587 381.125 416.913 379.812C417.24 378.504 420.352 373.426 420.843 372.609C421.334 371.791 420.025 370.153 420.19 369.335C420.352 368.514 421.99 366.058 421.99 366.058C421.99 366.058 420.352 360.655 420.517 359.02C420.682 357.381 420.19 357.051 421.173 354.76C422.155 352.469 421.499 344.936 421.99 343.954C422.482 342.971 433.779 333.473 435.418 333.147C437.053 332.821 438.365 330.364 438.365 330.364C438.365 330.364 438.2 326.27 438.527 324.305C438.857 322.34 446.225 313.098 447.533 312.232C448.846 311.368 451.302 307.93 451.954 307.93H467.512C468.986 307.93 471.933 304.818 473.077 304.818C474.224 304.818 500.258 305.148 500.915 304.818C501.571 304.491 502.062 314.972 503.044 315.133C504.027 315.298 508.121 317.589 508.448 318.245C508.774 318.902 509.532 319.719 509.725 319.884C509.921 320.045 516.269 321.193 516.697 321.684C517.125 322.175 521.219 327.905 521.219 327.905C521.219 327.905 527.605 327.905 528.096 327.579C528.588 327.252 531.044 322.01 531.535 321.358C532.026 320.702 533.5 320.702 535.138 320.702C536.777 320.702 541.033 322.501 541.689 322.501C542.342 322.501 542.671 327.087 542.998 327.579C543.324 328.07 545.289 325.287 545.78 325.287C546.271 325.287 555.769 327.579 556.917 328.07C558.064 328.561 568.601 339.112 570.506 340.164C572.414 341.213 577.548 355.578 578.204 356.725C578.856 357.872 579.021 361.311 579.021 361.311C579.021 361.311 581.804 363.276 582.295 364.914C582.786 366.549 584.042 369.879 584.698 371.191C585.354 372.5 586.39 376.212 588.028 377.521C589.667 378.83 590.319 383.907 590.975 384.889C591.631 385.872 591.793 389.64 592.449 389.802C593.105 389.966 595.723 391.114 596.705 391.931C597.687 392.749 599.326 394.879 600.308 395.696C601.291 396.517 601.291 400.773 601.291 400.773Z" fill="#167C51"/>
<path d="M278.603 644.754C278.603 644.754 274.673 642.789 272.27 641.698C269.87 640.607 267.249 638.642 267.249 638.642C267.249 638.642 265.94 636.238 265.067 636.021C264.193 635.803 260.263 638.421 260.263 638.421L263.102 644.754C263.102 644.754 268.34 646.501 269.435 646.936C270.526 647.375 278.603 644.754 278.603 644.754Z" fill="#0C6C44"/>
<path d="M266.378 630.126L264.63 624.888C264.63 624.888 270.525 618.993 271.181 616.807C271.837 614.625 272.055 608.074 272.055 608.074L269.434 604.801C269.434 604.801 276.202 594.759 276.641 593.011C277.076 591.264 276.641 587.117 276.641 587.117C276.641 587.117 277.076 586.026 278.605 585.587C280.132 585.152 282.314 580.131 283.409 578.819C284.5 577.51 295.198 573.363 295.633 572.489C296.072 571.615 296.507 568.559 296.507 568.559C296.507 568.559 293.451 561.57 294.542 560.917C295.633 560.261 300.654 560.917 300.654 560.917C300.654 560.917 311.352 549.998 315.938 544.542C320.524 539.083 320.085 529.915 321.397 526.638C322.706 523.364 340.39 515.07 341.92 512.449C343.446 509.828 347.597 493.017 347.597 493.017C347.597 493.017 349.341 480.137 349.997 478.172C350.653 476.207 357.639 473.369 358.074 471.183C358.512 469.001 359.168 454.808 359.168 454.808C359.168 454.808 347.597 451.752 347.158 450.226C346.723 448.696 346.723 446.731 345.632 445.64C344.537 444.549 332.313 443.019 331.439 442.801C330.566 442.584 325.106 435.601 325.106 435.601C325.106 435.601 315.313 436.482 313.769 435.601C312.226 434.724 311.899 432.759 311.899 432.759C311.899 432.759 312.008 426.426 311.899 424.9C311.791 423.37 303.058 415.946 300.654 414.419C298.254 412.89 287.991 408.96 286.244 407.434C284.5 405.904 282.753 399.792 282.097 398.918C281.444 398.044 262.23 395.862 261.574 395.423C260.918 394.988 254.806 391.932 254.806 391.932C254.806 391.932 251.75 395.423 250.659 394.771C249.568 394.115 248.694 389.746 247.82 389.746C246.947 389.746 241.487 393.024 241.487 393.024C241.487 393.024 236.905 394.115 235.814 395.206C234.719 396.297 232.537 401.318 231.445 401.757C230.354 402.192 227.516 402.848 227.516 402.848C227.516 402.848 226.207 406.56 226.642 407.434C227.081 408.307 229.263 412.455 229.263 412.455C229.263 412.455 228.824 421.188 228.172 421.844C227.516 422.496 218.565 434.517 218.347 435.601C218.126 436.689 218.347 440.401 218.347 440.401C218.347 440.401 221.839 443.457 220.965 445.64C220.091 447.822 216.818 451.099 216.818 452.408C216.818 453.717 221.403 460.267 222.495 460.924C223.586 461.576 223.803 470.309 224.46 471.183C225.116 472.057 234.501 485.158 235.593 486.032C236.684 486.905 250.441 498.473 250.876 500.877C251.315 503.277 253.497 513.757 252.406 520.526C251.315 527.294 250.003 536.027 249.129 538.648C248.255 541.265 248.912 564.447 248.476 566.395C248.038 568.338 247.603 571.398 246.947 572.051C246.291 572.707 247.164 588.864 247.603 591.482C248.038 594.103 248.912 601.744 247.603 604.144C246.291 606.548 245.417 610.913 245.638 612.225C245.855 613.534 248.038 619.646 248.255 620.519C248.476 621.393 248.694 625.105 248.694 625.105L252.624 628.161L253.497 633.182C253.497 633.182 257.862 634.273 258.953 634.491C260.045 634.712 260.266 632.309 260.266 632.309C260.266 632.309 262.23 633.4 264.63 632.747C267.034 632.091 266.378 630.126 266.378 630.126Z" fill="#167C51"/>
<path d="M212.232 350.34C212.232 350.34 222.873 349.848 224.021 350.34C225.168 350.831 235.648 357.543 236.631 358.034C237.613 358.525 243.017 360.981 243.017 360.981C243.017 360.981 241.543 362.129 240.396 362.455C239.248 362.785 231.228 362.455 231.228 362.455C231.228 362.455 229.754 358.525 228.933 358.034C228.115 357.543 223.203 354.925 222.056 354.596C220.909 354.269 213.87 356.36 213.87 356.36C213.87 356.36 210.923 354.434 210.432 353.778C209.94 353.122 212.232 350.34 212.232 350.34Z" fill="#0C6C44"/>
<path d="M229.751 366.55C229.751 366.55 233.355 367.206 234.663 367.533C235.972 367.859 237.446 369.824 237.446 369.824C237.446 369.824 234.172 369.498 233.6 369.824C233.025 370.154 229.751 369.824 229.751 369.824C229.751 369.824 228.674 366.35 229.751 366.55Z" fill="#0C6C44"/>
<path d="M243.015 366.542C243.015 366.542 244.654 367.353 245.798 366.542C246.945 365.732 248.583 364.093 249.566 364.093C250.548 364.093 254.478 363.767 255.296 364.093C256.113 364.423 258.573 365.388 257.917 366.542C257.26 367.697 254.478 370.97 253.331 370.97C252.183 370.97 249.236 371.626 248.745 370.97C248.254 370.317 246.945 369.97 246.945 369.97C246.945 369.97 244.654 369.335 243.998 369.17C243.341 369.005 241.099 366.212 243.015 366.542Z" fill="#0C6C44"/>
<path d="M298.033 252.093C298.033 252.093 309.658 241.777 310.64 242.595C311.623 243.416 310.64 248.328 310.64 248.328C310.64 248.328 312.145 249.472 313.77 249.637C315.391 249.802 316.208 254.714 316.538 255.366C316.864 256.023 316.538 261.752 315.391 261.752C314.243 261.752 311.787 259.952 311.787 259.952L304.254 258.805L301.798 257.822C301.798 257.822 297.051 257.005 297.216 256.349C297.377 255.696 298.033 252.093 298.033 252.093Z" fill="#F44A45"/>
<path d="M231.389 181.683C231.389 181.683 234.501 175.462 235.81 174.641C237.119 173.824 241.704 173.333 241.704 173.333C241.704 173.333 244.325 178.736 244.982 178.901C245.634 179.062 249.564 181.683 249.564 181.683L248.42 182.666H241.704C241.704 182.666 237.448 186.431 236.792 186.595C236.136 186.76 230.747 182.922 231.389 181.683Z" fill="#F44A45"/>
<path d="M239.085 187.74C239.085 187.74 238.268 190.196 239.085 190.361C239.903 190.523 242.85 189.049 243.18 187.74L243.506 186.432C243.506 186.432 239.376 186.586 239.085 187.74Z" fill="#F44A45"/>
<path d="M254.807 183.484L253.333 186.6C253.333 186.6 252.842 186.922 254.807 186.431C256.772 185.94 258.245 183.484 258.245 183.484C258.245 183.484 256.607 182.175 254.807 183.484Z" fill="#F44A45"/>
<path d="M257.263 179.966C257.263 179.966 265.778 181.681 266.922 181.681C268.069 181.681 270.36 186.102 271.673 186.432C272.981 186.759 277.732 186.934 279.367 188.401C281.006 189.871 284.609 194.944 285.427 194.783C286.244 194.618 285.427 192.162 285.427 192.162L282.971 184.804C282.971 184.804 289.03 190.713 289.683 190.372C290.339 190.032 291.321 179.966 291.321 179.966C291.321 179.966 286.735 173.822 286.574 173.331C286.409 172.84 287.065 171.857 288.209 171.692C289.356 171.531 293.777 176.117 295.416 175.952C297.051 175.787 303.932 168.254 303.932 168.254C303.932 168.254 287.065 157.938 288.374 157.447C289.683 156.956 290.174 156.794 290.174 156.138C290.174 155.482 291.321 152.209 291.321 152.209C291.321 152.209 283.627 143.202 282.479 143.202H277.241C277.241 143.202 277.076 143.037 274.785 141.402C272.49 139.763 258.245 138.946 258.245 138.946C258.245 138.946 255.298 134.36 254.806 134.034C254.315 133.704 248.421 134.034 248.421 134.034C248.421 134.034 244.817 142.054 244.326 141.402C243.835 140.746 244.326 137.633 244.326 137.633L245.965 132.395L240.452 133.377C240.452 133.377 233.684 140.581 233.846 141.402C234.011 142.219 234.502 150.079 234.502 150.079C234.502 150.079 239.379 152.535 241.116 152.865C242.852 153.191 251.586 153.191 253.277 153.191C254.971 153.191 259.719 152.535 259.719 152.535L262.175 151.061L263.483 154.5C263.483 154.5 265.613 158.921 266.269 159.086C266.922 159.25 272.49 161.05 272.49 161.05C272.49 161.05 271.999 167.271 271.999 167.763C271.999 168.254 267.087 172.678 266.269 173.331C265.448 173.987 260.21 177.261 259.554 177.261C258.901 177.261 256.045 179.724 257.263 179.966Z" fill="#F44A45"/>
<path d="M266.758 161.213C266.758 161.213 262.828 163.504 262.828 164.325C262.828 165.143 262.011 169.072 262.828 168.908C263.646 168.746 266.267 165.637 266.758 165.062C267.249 164.487 266.758 161.213 266.758 161.213Z" fill="#F44A45"/>
<path d="M260.207 154.828C260.207 154.828 258.078 154.828 257.26 155.975C256.442 157.119 255.758 158.267 255.758 158.267C255.758 158.267 258.078 158.593 259.06 158.267C260.042 157.94 261.025 156.621 261.025 156.621C261.025 156.621 261.039 154.747 260.207 154.828Z" fill="#F44A45"/>
<path d="M139.091 137.799C139.091 137.799 140.621 139.217 140.73 139.546C140.839 139.873 140.73 142.82 140.73 142.82C140.73 142.82 150.88 143.476 151.319 142.82C151.754 142.167 152.737 138.782 153.501 138.455C154.266 138.125 157.54 135.069 157.54 135.069C157.54 135.069 158.196 139.073 157.54 139.09C156.884 139.108 156.884 140.746 156.884 140.746L157.831 146.097C157.831 146.097 169.655 146.641 169.438 146.967C169.22 147.297 166.599 148.171 166.599 148.171C166.599 148.171 158.631 149.262 158.414 149.697C158.196 150.136 157.975 152.209 157.975 152.209C157.975 152.209 165.726 155.921 166.929 156.574C168.129 157.23 172.168 157.778 172.824 157.665C173.476 157.556 176.862 155.374 176.862 155.374C176.862 155.374 185.595 155.813 186.578 155.813C187.56 155.813 190.834 156.665 191.599 156.62C192.364 156.574 195.42 156.62 195.42 156.62C195.42 156.62 197.167 152.209 197.711 151.992C198.258 151.771 199.676 150.571 199.676 150.571C199.676 150.571 199.784 149.153 199.676 148.497C199.567 147.841 192.146 139.655 191.599 138.673C191.051 137.69 190.181 134.087 190.181 134.087H187.013C187.013 134.087 185.704 136.382 185.157 136.49C184.613 136.599 183.522 134.961 183.522 134.961L179.592 136.382C179.592 136.382 170.638 135.943 170.094 135.508C169.547 135.069 166.929 133.104 166.929 133.104L164.964 133.869L163.652 132.396C163.652 132.396 164.526 131.687 164.743 131.031C164.964 130.375 164.635 128.848 164.635 128.848C164.635 128.848 157.649 129.066 157.322 128.848C156.993 128.631 155.358 127.648 154.919 127.536C154.484 127.427 145.095 127.536 145.095 127.536C145.095 127.536 142.256 132.231 142.147 132.996C142.039 133.761 139.091 137.799 139.091 137.799Z" fill="#F44A45"/>
<path d="M154.348 116.402C154.348 116.402 154.594 115.311 155.137 114.872C155.685 114.437 164.2 109.96 164.744 109.743C165.292 109.525 173.151 109.743 173.151 109.743C173.151 109.743 171.512 112.704 170.856 113.023C170.204 113.346 165.509 115.529 165.509 115.529C165.509 115.529 163.955 118.585 163.748 118.693C163.544 118.802 162.123 117.058 162.123 117.058C162.123 117.058 154.169 116.971 154.348 116.402Z" fill="#F44A45"/>
<path d="M168.129 120.443C168.129 120.443 173.259 115.64 173.806 115.422C174.35 115.205 179.375 118.598 179.919 118.703C180.466 118.805 180.357 120.769 180.357 121.426C180.357 122.082 177.41 124.699 177.41 125.138C177.41 125.573 175.88 126.12 175.88 126.12C175.88 126.12 175.017 124.59 174.249 124.373C173.48 124.155 168.456 123.717 168.129 123.608C167.803 123.499 167.207 121.299 168.129 120.443Z" fill="#F44A45"/>
<path d="M191.817 131.249C191.817 131.249 192.909 130.266 193.673 130.157C194.438 130.049 195.53 130.157 195.53 130.157C195.53 130.157 196.294 132.666 195.53 132.996C194.765 133.322 193.126 133.87 193.126 133.87C193.126 133.87 192.035 132.014 191.817 131.249Z" fill="#F44A45"/>
<path d="M201.535 136.598C201.535 136.598 202.409 136.163 203.391 135.941C204.374 135.724 206.886 135.941 206.886 135.941C206.886 135.941 207.321 134.85 206.886 134.306C206.448 133.759 205.683 133.215 205.683 133.215V131.987C205.683 131.987 211.577 131.468 211.798 131.029C212.016 130.594 212.998 130.17 213.325 130.11C213.651 130.047 216.272 130.11 216.272 130.11C216.272 130.11 214.854 132.885 214.416 132.885C213.981 132.885 212.56 133.868 212.56 133.868C212.56 133.868 213.325 134.633 213.763 134.959C214.198 135.289 214.746 135.941 214.854 136.598C214.963 137.254 214.198 140.201 214.198 140.201C214.198 140.201 211.033 143.801 210.486 143.801C209.942 143.801 208.086 144.566 207.648 143.801C207.212 143.04 206.556 140.966 206.556 140.966C206.556 140.966 203.283 140.201 202.735 139.98C202.192 139.762 201.535 136.598 201.535 136.598Z" fill="#F44A45"/>
<path d="M193.843 123.247C193.843 123.247 193.317 122.324 192.58 121.914C191.843 121.503 189.633 120.03 189.387 119.949C189.142 119.868 187.096 119.331 187.015 118.7C186.931 118.065 186.77 115.118 187.422 114.711C188.079 114.3 189.963 113.644 189.963 113.644C189.963 113.644 190.78 115.693 191.107 115.854C191.436 116.019 192.647 117.082 193.843 117.082C195.04 117.082 197.005 117.903 197.005 117.903C197.005 117.903 195.531 119.212 195.201 119.212C194.875 119.212 194.629 121.177 194.629 121.177L195.868 122.079C195.868 122.079 194.142 123.686 193.843 123.247Z" fill="#FA5652"/>
<path d="M180.366 108.979C180.366 108.979 179.892 107.587 181.12 107.26C182.348 106.934 183.085 105.787 183.085 105.787C183.085 105.787 185.134 103.411 185.541 103.33C185.952 103.25 190.537 103.33 190.537 103.33C190.537 103.33 188.488 105.751 188.488 106.137C188.488 106.523 188.818 108.488 188.818 108.488C188.818 108.488 187.751 110.534 187.344 110.618C186.934 110.699 182.187 111.19 182.022 111.109C181.857 111.025 180.366 108.979 180.366 108.979Z" fill="#F44A45"/>
<path d="M179.156 105.459C179.156 105.459 176.454 106.031 176.454 106.607C176.454 107.178 174.489 108.898 174.815 108.978C175.145 109.063 176.966 108.978 176.966 108.978C176.966 108.978 178.664 107.915 179.156 107.589C179.647 107.259 180.629 105.059 179.156 105.459Z" fill="#FA5652"/>
<path d="M197.904 122.453C197.904 122.453 199.624 121.835 200.28 121.835H202.652C202.652 121.835 202.325 123.635 201.017 124.046C199.704 124.453 197.904 124.453 197.904 124.453C197.904 124.453 196.452 122.905 197.904 122.453Z" fill="#F44A45"/>
<path d="M219.846 133.377C219.846 133.377 222.383 132.23 223.449 132.395C224.513 132.56 226.804 131.988 226.804 131.988C226.804 131.988 228.442 130.511 230.242 130.511H233.842C233.842 130.511 232.453 133.296 231.961 133.868C231.47 134.44 229.098 135.177 229.098 135.177H225.576C225.576 135.177 224.021 137.552 223.53 137.717C223.039 137.879 221.646 139.026 221.239 139.026H218.372C218.372 139.026 218.59 133.875 219.846 133.377Z" fill="#FA5652"/>
<path d="M221.647 130.082C221.647 130.082 223.447 128.956 225.005 128.956H228.934C228.934 128.956 227.622 131.085 226.559 131.25C225.496 131.412 221.32 131.577 221.075 131.657C220.829 131.742 221.647 130.082 221.647 130.082Z" fill="#FA5652"/>
<path d="M219.844 124.044C219.844 124.044 221.237 121.999 221.564 121.834C221.89 121.669 223.318 121.283 224.981 121.188C226.641 121.097 228.932 121.188 228.932 121.188C228.932 121.188 228.686 124.862 227.704 125.108C226.721 125.353 223.118 126.336 221.809 126.665C220.501 126.992 219.844 124.044 219.844 124.044Z" fill="#F44A45"/>
<path d="M206.255 120.764C206.255 120.764 208.031 121.178 208.901 121.835C209.774 122.487 211.658 123.224 211.904 123.143C212.15 123.063 214.441 123.259 214.932 123.326C215.423 123.389 216.736 119.27 216.736 119.27C216.736 119.27 218.125 117.414 218.371 117.084C218.616 116.757 217.879 115.41 217.879 115.41H212.806C212.806 115.41 211.739 114.957 211.413 115.038C211.087 115.119 208.901 117.329 208.901 117.329L206.255 120.764Z" fill="#F44A45"/>
<path d="M201.535 117.167L203.472 115.03C203.472 115.03 204.538 115.181 205.437 115.03C206.338 114.876 206.258 116.757 206.258 116.757C206.258 116.757 204.619 118.658 204.374 118.486C204.128 118.314 202.328 118.486 202.328 118.486C202.328 118.486 200.623 118.174 201.535 117.167Z" fill="#F44A45"/>
<path d="M198.396 109.015C198.396 109.015 199.01 110.37 199.726 110.615C200.442 110.861 201.266 111.517 201.266 111.517L202.652 112.008C202.652 112.008 202.326 109.38 202.08 109.015C201.835 108.65 198.052 108.394 198.396 109.015Z" fill="#F44A45"/>
<path d="M212.34 101.174C212.34 101.174 209.722 99.7004 209.066 99.4267C208.414 99.153 206.256 99.4267 206.256 99.4267L205.466 101.174L202.898 103.293C202.898 103.293 201.053 105.048 201.267 105.104C201.481 105.16 204.87 105.43 206.259 105.595C207.649 105.76 211.905 105.321 211.905 105.321L213.379 107.205C213.379 107.205 215.017 107.833 215.508 107.833C215.999 107.833 217.856 107.56 217.856 107.56C217.856 107.56 217.308 104.669 216.982 104.339C216.656 104.013 214.252 102.974 214.252 102.974C214.252 102.974 212.887 101.479 212.34 101.174Z" fill="#F44A45"/>
<path d="M226.313 108.98C226.313 108.98 223.039 108.489 222.601 107.832C222.166 107.18 221.457 106.415 221.457 106.415L219.38 104.176C219.38 104.176 223.583 102.868 224.622 102.703C225.657 102.538 227.622 104.394 227.787 104.611C227.952 104.832 228.278 106.141 228.278 106.141L228.934 107.341L230.243 108.639C230.243 108.639 227.092 109.117 226.313 108.98Z" fill="#F44A45"/>
<path d="M228.387 109.252C228.387 109.252 230.243 109.087 230.952 109.252C231.66 109.417 232.316 110.326 232.316 110.326L232.59 111.382C232.59 111.382 229.86 111.544 229.534 111.382C229.204 111.217 228.331 111 227.896 110.726C227.46 110.452 228.387 109.252 228.387 109.252Z" fill="#FA5652"/>
<path d="M222.165 113.454C222.165 113.454 227.459 113.346 228.277 113.454C229.098 113.563 230.571 114.272 230.571 114.272L232.589 115.026C232.589 115.026 230.298 116.128 229.859 116.237C229.424 116.346 226.694 116.184 226.477 116.237C226.259 116.293 224.389 115.528 224.389 115.528C224.389 115.528 222.929 115.584 222.165 115.475C221.4 115.363 220.691 114.546 220.691 114.546C220.691 114.546 221.347 113.181 222.165 113.454Z" fill="#FA5652"/>
<path d="M176.645 125.79C176.645 125.79 181.557 123.685 182.757 123.916C183.96 124.151 189.855 123.916 189.855 123.916L194.493 123.144L190.535 118.699L187.56 116.759L181.774 118.699L177.859 117.541L176.645 121.832V125.79Z" fill="#F44A45"/>
<path d="M222.165 115.475C222.165 115.475 226.119 117.496 226.109 117.496C226.095 117.496 228.825 119.331 229.807 119.176C230.789 119.022 231.446 121.832 231.446 121.832L233.842 125.79L235.375 126.688C235.375 126.688 240.722 125.134 241.922 125.79C243.126 126.446 246.073 127.878 246.508 127.488C246.947 127.099 252.077 126.169 254.259 126.688C256.441 127.211 261.027 127.555 261.027 127.555L264.722 125.79C264.722 125.79 261.245 122.46 260.592 121.832C259.936 121.204 252.077 120.443 252.077 120.443C252.077 120.443 242.143 120.552 241.814 120.334C241.487 120.113 239.084 116.675 238.758 116.759C238.431 116.839 233.842 115.475 233.842 115.475H231.642H222.165Z" fill="#F44A45"/>
<path d="M259.718 132.395C259.718 132.395 260.957 135.016 262.465 135.507C263.974 135.998 268.886 136.489 268.886 136.489H272.981C272.981 136.489 270.521 132.56 268.886 132.395C267.251 132.23 259.718 132.395 259.718 132.395Z" fill="#F44A45"/>
<path d="M270.361 117.822C270.361 117.822 268.561 116.208 267.74 116.278C266.922 116.348 265.613 115.475 265.613 115.475L262.466 117.822C262.466 117.822 259.526 116.208 258.393 116.278C257.263 116.348 252.512 116.278 252.512 116.278L248.582 116.759L242.688 116.65L240.232 115.029C240.232 115.029 243.835 111.801 244.326 111.454C244.818 111.11 245.961 109.215 246.453 109.18C246.944 109.145 249.238 108.724 249.73 109.18C250.221 109.636 251.856 110.324 251.856 110.324L252.677 109.18L251.53 107.215L249.4 105.847L250.547 105.412L249.4 103.57L246.453 105.412H242.688L234.828 104.559L231.881 97.3524L228.934 96.0436C228.934 96.0436 227.951 92.9314 228.934 92.9314C229.916 92.9314 232.59 89.8227 232.59 89.8227C232.59 89.8227 235.646 85.4018 236.302 85.4018C236.958 85.4018 242.032 86.8755 242.032 86.8755C242.032 86.8755 252.838 97.5173 253.003 98.0085C253.168 98.4997 254.312 102.791 254.968 102.693C255.624 102.594 259.719 103.293 259.719 103.293C259.719 103.293 258.87 99.9488 258.393 99.3067C257.915 98.6646 255.761 95.8787 255.761 95.8787L257.424 95.0612C257.424 95.0612 259.063 94.8963 261.028 96.0436L262.992 97.191L262.466 92.9314L258.393 91.6227L253.821 91.1315L249.428 89.6578C249.428 89.6578 246.944 88.0193 245.8 86.8755C244.653 85.7281 244.488 83.7633 244.488 83.7633L249.428 81.6335L255.761 79.9984L258.393 80.816L262.466 79.9984C262.466 79.9984 266.754 78.5248 268.887 78.0336C271.017 77.5424 273.799 78.8511 278.055 78.0336C282.315 77.2125 283.624 76.9845 285.262 77.9178C286.901 78.8511 288.701 78.8511 288.701 78.8511L292.304 77.3108C292.304 77.3108 295.413 77.4125 299.834 77.3108C304.255 77.2125 306.219 77.3108 306.219 77.3108L310.149 79.9984L315.226 81.4721C315.226 81.4721 318.995 81.6335 319.486 82.1247C319.977 82.6159 316.538 85.2369 316.538 85.2369L307.04 86.2193C307.04 86.2193 305.893 92.1139 305.076 92.1139C304.255 92.1139 300.655 93.4227 300.655 93.4227C300.655 93.4227 294.104 96.0436 292.795 96.3699C291.483 96.6998 281.659 97.5454 281.659 97.5454C281.659 97.5454 280.841 103.086 280.35 103.412C279.859 103.742 277.894 105.847 277.894 105.847L278.546 107.342L270.034 113.408C270.034 113.408 272.326 114.734 271.343 116.278L270.361 117.822Z" fill="#F44A45"/>
<path d="M285.753 107.013C285.753 107.013 287.391 104.722 288.374 104.392C289.356 104.066 294.268 103.083 294.268 103.083C294.268 103.083 301.146 100.627 302.454 100.301C303.767 99.9713 307.366 97.5433 307.366 97.5433C307.366 97.5433 304.093 97.3538 303.928 96.2065C303.767 95.0591 304.749 93.7504 304.749 93.7504C304.749 93.7504 306.223 90.8031 307.366 90.4733C308.514 90.147 313.77 88.5084 313.77 88.5084L316.208 86.3822C316.208 86.3822 327.345 83.1051 329.145 82.2875C330.948 81.47 343.555 82.7788 347.32 82.2875C351.088 81.7963 353.379 81.3051 353.379 81.3051C353.379 81.3051 355.344 79.9964 357.965 79.3402C360.586 78.6841 370.245 78.0315 374.34 78.5227C378.431 79.0139 381.379 77.2666 381.379 77.2666C381.379 77.2666 404.139 76.6666 406.104 77.2666C408.069 77.8666 415.111 79.0139 415.602 79.0139C416.093 79.0139 419.532 82.4524 418.714 82.2875C417.897 82.1226 414.129 83.27 414.129 83.27C414.129 83.27 397.427 84.0875 396.61 84.5787C395.789 85.0699 395.627 86.7085 396.119 86.7085C396.61 86.7085 416.585 85.726 417.076 85.8909C417.567 86.0524 414.95 89.9821 415.767 89.9821C416.585 89.9821 420.514 88.0172 421.006 88.0172C421.497 88.0172 439.293 88.5084 440.384 88.5084C441.475 88.5084 439.345 91.2943 439.345 91.2943C439.345 91.2943 433.616 93.0943 431.977 93.7504C430.339 94.4065 430.177 97.5152 429.356 97.5152C428.539 97.5152 424.118 99.4801 424.118 99.4801C424.118 99.4801 422.97 104.066 422.318 105.54C421.662 107.013 419.532 108.813 419.532 108.813C419.532 108.813 420.844 111.599 421.335 112.417C421.827 113.234 424.444 115.841 424.444 117.897V119.95C424.444 119.95 419.041 118.297 418.55 117.897C418.058 117.494 418.058 119.95 418.058 119.95L419.862 121.423C419.862 121.423 420.353 132.23 419.862 133.213C419.371 134.195 418.058 137.142 418.058 137.142L409.873 133.869C409.873 133.869 409.216 137.142 409.873 137.142C410.525 137.142 413.802 139.763 413.802 139.763L414.458 143.693C414.458 143.693 410.034 142.054 408.725 141.237C407.416 140.416 407.252 141.889 407.252 141.889L408.234 142.872L413.146 145.493C413.146 145.493 414.62 149.096 414.785 150.405C414.95 151.717 414.458 152.7 414.458 152.7H410.034L407.743 150.57L404.304 150.24L401.192 151.061L398.083 151.552L397.592 153.682L402.504 154.5C402.504 154.5 407.743 153.844 409.543 154.5C411.346 155.156 407.087 158.429 406.595 159.086C406.104 159.738 400.539 163.668 399.883 163.668C399.227 163.668 397.754 163.342 392.189 163.668C386.62 163.998 383.343 164.98 383.343 164.98L381.052 168.254C381.052 168.254 377.779 171.201 377.287 171.692C376.796 172.183 373.028 172.84 373.028 172.84H367.298C367.298 172.84 366.481 176.113 365.66 176.604C364.842 177.096 358.948 183.973 358.948 183.973C358.948 183.973 355.67 191.997 354.527 193.962C353.379 195.927 352.562 198.709 351.579 199.53C350.597 200.348 348.141 202.804 348.141 202.804H343.72L334.057 195.762L330.618 184.629C330.618 184.629 329.31 184.464 329.145 183.32C328.983 182.173 326.033 172.348 326.033 172.348L326.198 163.591L330.127 160.559L331.931 159.577L332.092 154.665L330.948 153.844L328.327 155.808H325.706L326.854 151.061L329.145 149.096L333.404 148.767L329.801 145.984L325.05 144.837C325.05 144.837 324.068 132.395 323.25 131.413C322.433 130.43 319.531 127.553 319.531 127.553L315.882 121.515L310.805 119.458L305.893 117.897L302.293 117.82L298.689 117.897H293.777L290.174 115.473L287.553 114.546L289.848 113.234L292.795 111.269L295.904 110.452L294.921 109.304H289.683L288.044 108.161L285.753 107.013Z" fill="#167C51"/>
<path d="M408.726 173.168H412.82V175.297H415.277L420.189 173.168L429.031 172.185L431.652 173.739L433.778 177.589L430.013 184.957L424.936 186.922L419.698 188.886L417.077 186.595L411.347 185.448L408.726 179.88V179.062L407.579 176.606L404.796 175.624L406.27 173.659L408.726 173.168Z" fill="#167C51"/>
<path d="M100.231 238.83L103.343 240.959L106.617 244.068L107.764 247.015V248.819L103.996 246.363L100.887 243.822L100.231 240.468V238.83Z" fill="#FA5652"/>
<path d="M88.4412 208.537V212.302V215.414L85.0027 211.976V207.228C85.0027 207.228 87.1325 206.898 88.4412 208.537Z" fill="#DA5C5D"/>
<path d="M93.0249 215.415L95.6459 219.509V223.109L93.0249 220.818L90.5688 218.362L93.0249 215.415Z" fill="#FF5476"/>
<path d="M32.603 211.307L35.8766 208.044L38.9888 205.588L40.2976 207.199L38.1713 210.009L36.4521 212.465H33.4206L32.603 211.307Z" fill="#DA5C5D"/>
<path d="M861.539 330.63V322.343L863.195 318.697L866.181 321.35V326.322V330.63H861.539Z" fill="#F44A45"/>
<path d="M866.18 315.713L869.826 310.742H876.124L878.86 307.394L881.429 303.117C881.429 303.117 882.092 306.763 884.081 301.128L886.067 295.493V291.514H891.372L895.018 293.503V307.394L893.028 313.394L889.053 315.713L878.86 320.355C878.86 320.355 880.432 324.001 877.12 322.011L873.804 320.022L869.162 318.696H866.18V315.713Z" fill="#F44A45"/>
<path d="M885.075 286.875V282.567L888.057 278.258V273.286H893.362L897.008 275.272L900.653 277.261L897.008 283.23L891.706 286.875H888.72H885.075Z" fill="#F44A45"/>
<path d="M886.734 269.305L885.078 256.709V254.72L880.601 248.755V235.825H883.667L885.078 243.78L890.049 254.72L892.867 256.376V260.688V267.649V269.305H886.734Z" fill="#F44A45"/>
<path d="M800.437 373.502L804.858 369.744H809.054V373.502L804.745 376.597H803.837L800.437 373.502Z" fill="#0C6C44"/>
<path d="M834.832 360.242L836.678 354.495L838.667 351.846L840.878 350.741L843.53 355.491L839.18 360.242V362.452L834.832 363.337V360.242Z" fill="#0C6C44"/>
<path d="M836.678 374.165V382.119L834.832 386.982L838.004 390.74L841.983 393.613L843.527 388.087V380.575V374.165L839.18 373.172L836.678 374.165Z" fill="#0C6C44"/>
<path d="M845.738 389.854L846.623 393.612V394.938L849.717 397.366L850.822 393.612V389.854L849.275 388.749L845.738 389.854Z" fill="#0C6C44"/>
<path d="M852.467 397.369V399.579L850.822 403.558L848.278 404.66V407.976H849.495L852.467 406.649C852.467 406.649 855.018 404.218 856.123 402.674L857.228 401.127V398.695L852.467 397.369Z" fill="#0C6C44"/>
<path d="M839.182 393.611L844.568 395.379V397.369L841.876 398.253L839.182 397.369L838.448 395.93L839.182 393.611Z" fill="#0C6C44"/>
<path d="M829.606 407.976L832.037 402.671L834.83 400.243H837.339L838.444 401.565L837.339 405.544L834.83 407.976L834.027 411.955H829.606V407.976Z" fill="#0C6C44"/>
<path d="M844.568 415.49L850.82 411.953L852.753 407.977H855.462L856.866 409.3L857.23 411.732V415.49L856.866 419.91L854.304 420.777L850.82 419.04V417.258L845.74 419.04H844.568V415.49Z" fill="#0C6C44"/>
<path d="M974.847 176.661C973.538 175.353 947.339 163.781 946.465 163.56C945.592 163.342 932.273 160.504 931.62 161.378C930.964 162.251 930.526 165.963 929.655 165.746C928.782 165.528 927.252 164.872 927.252 164.872L925.505 162.907C925.505 162.907 913.059 163.342 911.751 163.342C910.442 163.342 907.821 165.963 906.73 165.963C905.638 165.963 899.088 157.886 897.997 157.665C896.905 157.448 878.292 156.795 878.102 156.574C877.909 156.357 877.257 153.736 875.727 153.301C874.197 152.862 859.569 147.406 858.043 147.406H843.194C841.668 147.406 839.703 151.992 839.703 151.992C839.703 151.992 825.511 152.427 824.202 152.644C822.893 152.862 822.237 153.736 821.146 153.736C820.055 153.736 813.065 143.259 811.539 142.82C810.009 142.385 802.367 141.511 800.403 141.729C798.438 141.946 796.694 143.694 795.164 143.476C793.634 143.259 789.052 143.911 787.74 143.038C786.431 142.164 784.684 142.315 783.375 141.694C782.066 141.073 771.586 140.855 770.495 140.638C769.403 140.42 767.656 138.234 766.344 138.455C765.035 138.673 759.576 141.729 758.702 141.511C757.832 141.294 761.761 138.438 761.761 138.438C761.761 138.438 768.53 133.87 768.965 132.122C769.403 130.375 766.344 128.192 765.253 126.666C764.161 125.136 761.761 123.828 760.449 123.607C759.141 123.389 752.59 122.733 750.407 121.863C748.225 120.989 746.695 118.586 744.948 118.151C743.201 117.712 741.018 117.933 739.053 118.151C737.088 118.368 732.724 123.389 731.632 123.607C730.538 123.828 717.222 124.919 716.349 124.919C715.475 124.919 709.798 129.284 708.051 129.501C706.307 129.722 702.156 131.249 700.847 132.561C699.539 133.87 698.226 138.673 696.479 138.673C694.735 138.673 689.493 138.234 688.402 139.547C687.311 140.855 684.69 141.729 686.002 142.603C687.311 143.476 694.735 148.715 693.64 149.153C692.549 149.588 688.777 147.841 685.641 146.967C682.507 146.097 679.886 145.876 679.234 146.315C678.578 146.75 677.486 150.027 676.174 149.806C674.865 149.588 673.992 144.132 673.118 143.911C672.244 143.694 669.627 144.785 669.627 147.624C669.627 150.462 671.592 155.048 672.901 158.104C674.209 161.16 678.143 163.342 680.107 163.999C682.072 164.655 683.381 167.055 682.29 167.493C681.199 167.928 677.269 167.272 676.613 167.711C675.957 168.146 673.118 174.261 671.153 175.132C669.188 176.005 665.476 176.661 665.915 176.005C666.35 175.353 669.627 169.893 669.409 166.398C669.188 162.907 667.153 158.104 665.88 155.483C664.606 152.862 666.28 149.371 665.88 146.75C665.476 144.132 658.49 144.132 656.308 145.003C654.126 145.876 651.722 149.371 651.287 151.553C650.849 153.736 653.908 159.195 656.091 161.378C658.273 163.56 656.964 165.746 655.873 165.746C654.778 165.746 648.01 160.069 644.08 158.104C640.151 156.139 634.912 156.357 632.947 156.574C630.982 156.795 630.109 160.069 631.639 159.851C633.165 159.63 636.877 162.907 636.877 163.56C636.877 164.216 622.905 164.655 620.941 165.09C618.976 165.528 616.572 164.216 615.916 163.999C615.264 163.781 599.324 174.479 598.45 174.261C597.58 174.04 597.359 168.363 597.141 167.493C596.924 166.62 593.429 165.307 592.776 165.09C592.12 164.872 591.903 168.584 591.685 170.111C591.464 171.64 587.752 175.132 587.752 175.132L581.64 180.374C581.64 180.374 583.387 183.865 581.64 183.865C579.892 183.865 575.089 181.03 573.563 181.03C572.033 181.03 573.998 185.693 573.563 185.98C573.124 186.268 570.942 185.98 570.942 185.98C570.942 185.98 563.739 175.353 564.612 174.479C565.486 173.605 571.159 173.823 572.251 175.353C573.345 176.879 572.033 177.317 573.345 176.879C574.654 176.444 579.675 175.788 579.675 175.788C579.675 175.788 582.731 172.514 582.731 171.64C582.731 170.767 561.335 157.013 560.026 156.574C558.718 156.139 559.588 157.013 556.753 157.013C553.914 157.013 552.82 156.795 552.82 156.795C552.82 156.795 551.949 157.013 552.82 155.048C553.693 153.083 547.581 150.245 546.925 150.027C546.272 149.806 541.686 151.992 541.03 151.992C540.378 151.992 537.101 151.336 537.101 151.336L529.213 155.265C529.213 155.265 524.003 156.139 523.129 157.013C522.255 157.886 518.108 158.104 517.452 158.76C516.796 159.413 510.249 164.434 511.775 165.09C513.305 165.746 512.866 169.458 512.866 169.458C512.866 169.458 498.895 185.177 496.93 186.924C494.965 188.668 487.323 195.436 487.105 196.528C486.888 197.622 484.923 200.678 486.014 201.331C487.105 201.987 489.07 203.296 489.07 204.169C489.07 205.043 489.944 213.124 490.818 213.341C491.691 213.559 494.965 213.776 494.965 213.776C494.965 213.776 499.551 210.938 500.203 210.938C500.859 210.938 504.031 218.58 504.737 219.671C505.445 220.762 505.663 225.13 505.663 225.13L509.157 226.657C509.157 226.657 515.052 225.348 516.578 224.474C518.108 223.601 517.891 216.832 517.891 215.741C517.891 214.65 524.22 208.755 524.438 207.664C524.659 206.573 521.82 199.366 521.599 198.275C521.382 197.184 522.473 192.163 523.564 191.072C524.659 189.98 526.841 189.98 527.932 188.668C529.024 187.359 533.609 181.03 534.701 180.156C535.792 179.282 539.939 178.844 539.939 178.844C539.939 178.844 541.904 181.682 540.595 182.338C539.287 182.995 533.388 187.142 532.953 188.233C532.518 189.324 528.806 200.022 530.115 201.331C531.424 202.643 535.357 205.699 537.539 206.134C539.722 206.573 546.707 204.169 548.89 204.608C551.076 205.043 553.693 207.008 553.693 207.008C553.693 207.008 545.616 208.099 544.086 208.755C542.56 209.411 539.939 210.064 539.939 210.064C539.939 210.064 539.287 218.145 538.192 218.145C537.101 218.145 532.736 219.888 532.736 219.888C532.736 219.888 528.806 229.278 527.715 229.716C526.624 230.151 503.698 230.807 501.733 230.151L500.642 218.797C500.642 218.797 497.365 220.762 496.712 221.636C496.056 222.509 495.621 231.025 494.747 231.681C493.874 232.334 486.011 236.919 485.684 237.793C485.358 238.667 475.095 251.986 473.351 251.765C471.604 251.547 466.362 250.673 465.927 251.986C465.492 253.294 465.053 255.477 463.745 256.133C462.432 256.786 456.32 258.098 456.32 258.098C456.32 258.098 457.629 259.845 458.503 260.063C459.376 260.28 461.341 260.063 461.341 260.063C461.341 260.063 465.053 266.175 465.927 266.831C466.801 267.487 465.709 275.347 465.492 275.999C465.271 276.655 460.906 275.999 459.597 275.999C458.285 275.999 454.138 274.908 454.138 274.908C454.138 274.908 445.622 277.529 444.531 277.746C443.44 277.964 441.475 279.929 442.349 281.02C443.222 282.115 444.531 284.08 444.531 284.08L443.222 288.883L440.384 294.995C440.384 294.995 444.314 301.107 445.622 302.416C446.931 303.728 462.215 301.981 463.088 302.416C463.962 302.855 469.857 296.742 470.513 295.869C471.165 294.995 470.513 288.662 470.513 288.662C470.513 288.662 479.028 284.08 480.12 282.55C481.211 281.02 481.211 277.529 481.211 277.529C481.211 277.529 491.253 277.964 492.561 277.746C493.874 277.529 499.33 276.873 499.33 276.873C499.33 276.873 505.88 284.515 507.41 286.045C508.936 287.571 518.108 292.592 518.108 292.592C518.108 292.592 520.291 298.269 520.726 297.395C521.164 296.521 521.164 291.501 521.164 291.501C521.164 291.501 521.599 291.718 522.912 291.283C524.22 290.848 511.122 282.332 510.249 279.929C509.375 277.529 507.845 273.599 507.845 273.599C507.845 273.599 523.129 281.02 524.438 283.206C525.75 285.388 525.529 293.248 526.624 293.683C527.715 294.121 530.771 297.834 531.206 298.925C531.645 300.016 533.388 304.384 534.483 304.602C535.574 304.819 537.974 306.128 537.974 306.128C537.974 306.128 542.995 300.89 542.995 300.234C542.995 299.581 539.504 295.43 539.065 294.339C538.63 293.248 546.272 289.974 548.02 289.753C549.763 289.536 553.258 291.065 553.258 291.065C553.258 291.065 547.364 295.651 548.672 296.96C549.984 298.269 552.602 307.219 554.349 307.44C556.097 307.658 573.124 306.128 574.436 307.44C575.745 308.749 576.401 310.388 576.401 310.388C576.401 310.388 575.419 326.433 571.489 326.433C567.559 326.433 559.7 326.763 561.335 327.415C562.974 328.071 567.524 335.064 573.563 338.222C577.275 340.166 586.812 356.636 587.141 359.583C587.468 362.53 600.962 392.586 603.583 393.898C606.201 395.207 634.038 382.761 636.986 381.453C639.933 380.144 650.413 365.078 650.413 363.439C650.413 361.804 643.21 349.359 642.554 348.376C641.898 347.394 630.765 353.615 628.8 352.962C626.835 352.306 616.681 333.966 617.993 333.31C619.302 332.657 624.54 335.605 624.54 335.605C624.54 335.605 629.453 344.773 631.091 345.099C632.73 345.429 642.554 343.134 643.863 343.464C645.175 343.79 645.828 349.359 647.792 349.359C648.922 349.359 655.676 349.688 661.466 350.124L673.532 336.363V324.665V318.696V308.753L684.139 303.398L692.097 295.851L696.514 288.332V269.308V258.572L705.356 253.856L714.601 252.568L717.875 242.551V227.053L724.801 217.057H730.987H738.945V221.446L748.667 230.772H753.972L761.811 235.828H773.417L784.024 242.551L792.213 243.512L800.438 248.723H810.894L819.697 243.512L824.669 235.828L829.647 230.772V227.053L824.669 214.432L815.848 212.369L814.964 204.612L819.697 198.464H824.669L829.647 188.889H839.181L844.566 194.787H852.026L863.548 204.612L871.576 207.233H881.895L884.436 215.085C889.625 214.601 896.14 214.239 896.688 214.65C897.558 215.306 899.088 217.923 901.27 218.145C903.456 218.362 908.912 214.292 910.442 214.471C911.968 214.65 908.256 210.938 908.256 210.938C908.256 210.938 911.968 205.699 913.498 205.699C915.024 205.699 917.21 207.664 918.736 208.32C920.266 208.973 927.908 202.426 927.908 202.426C927.908 202.426 929.217 203.952 929.217 204.608C929.217 205.261 920.919 218.145 919.175 219.236C917.428 220.327 914.807 222.948 914.807 222.948C914.807 222.948 913.059 232.99 913.933 234.737C914.807 236.484 922.449 255.694 923.54 253.951C924.631 252.203 930.747 241.505 931.182 239.976C931.62 238.449 929.873 236.484 931.182 234.52C932.49 232.555 935.55 230.59 935.55 229.278C935.55 227.969 933.803 223.601 933.585 221.857C933.364 220.109 930.964 218.797 930.964 218.797C930.964 218.797 931.62 214.215 933.803 213.776C935.985 213.341 936.424 211.594 940.353 211.376C944.283 211.159 946.248 210.938 946.248 210.938C946.248 210.938 949.522 212.467 950.395 212.467C951.269 212.467 955.851 203.296 957.163 203.517C958.472 203.734 961.749 204.39 962.619 203.952C963.493 203.517 966.332 202.426 966.332 202.426C966.332 202.426 969.826 201.552 969.826 200.24C969.826 198.931 966.549 192.38 965.458 191.945C964.367 191.507 962.841 189.98 962.841 189.98C962.841 189.98 964.584 188.015 965.458 187.577C966.332 187.142 966.77 183.865 966.77 183.865C966.77 183.865 968.297 182.338 969.826 183.865C971.353 185.394 982.707 193.254 985.763 193.693L988.819 194.128V188.668C988.819 187.577 990.566 184.521 990.566 184.521C990.566 184.521 976.156 177.97 974.847 176.661Z" fill="#167C51"/>
<path d="M871.577 207.233L863.549 204.608L852.026 194.787H844.567L839.181 188.886H829.648L824.669 198.464H819.697L814.964 204.608L815.848 212.369L824.669 214.432L829.648 227.053V230.772L824.669 235.825L819.697 243.512L810.894 248.719H800.435L792.214 243.512L784.024 242.551L773.418 235.825H761.811L753.973 230.772H748.667L738.945 221.446V217.053H730.987H724.801L717.875 227.053V242.551L714.602 252.565L705.353 253.856L696.514 258.572V269.305V288.332L692.093 295.851L684.139 303.399L673.533 308.753V318.696V324.665V336.359L661.466 350.12C665.75 350.443 669.505 350.822 670.062 351.166C671.371 351.976 681.525 361.801 681.525 361.801L678.904 363.765C678.904 363.765 682.508 368.025 684.146 368.351C685.781 368.681 692.006 366.06 692.006 366.06C692.006 366.06 693.971 380.47 694.297 381.779C694.623 383.088 703.795 411.582 706.742 411.252C709.689 410.926 712.637 405.357 714.275 401.428C715.91 397.498 714.928 388.656 716.567 386.365C718.205 384.07 723.117 384.07 723.77 382.105C724.426 380.141 727.373 373.263 727.373 373.263C727.373 373.263 735.563 372.281 735.889 370.972C736.215 369.664 737.527 365.734 737.527 365.734L746.696 361.801C746.696 361.801 748.987 369.334 750.625 369.664C752.264 369.99 758.815 376.211 758.815 376.211C758.815 376.211 757.176 385.382 758.158 385.709C759.141 386.035 767.983 385.053 767.983 385.053C767.983 385.053 770.712 396.407 768.856 398.263C768.856 398.263 770.495 411.691 771.695 414.529C772.895 417.368 778.572 422.606 779.446 424.897C780.319 427.192 779.446 431.666 781.193 433.63C782.937 435.595 788.614 439.637 790.035 440.29C791.452 440.946 790.796 436.143 791.017 434.834C791.235 433.522 789.379 434.069 789.379 430.683C789.379 427.301 789.27 426.753 788.723 425.227C788.179 423.697 779.435 415.182 778.182 414.199C776.933 413.217 775.186 411.034 774.86 409.834C774.533 408.635 774.642 402.849 774.642 401.649C774.642 400.445 778.014 396.189 778.182 396.189C778.354 396.189 784.575 403.614 785.884 404.596C787.196 405.578 790.144 412.891 791.561 413.329C792.982 413.764 802.041 403.393 803.133 401.319C804.224 399.245 805.206 389.968 803.133 387.891C801.059 385.818 795.929 382.979 795.382 380.579C794.838 378.176 793.091 374.028 794.182 372.39C795.273 370.755 799.312 367.699 800.185 367.478C801.059 367.26 804.445 369.664 805.536 369.551C806.627 369.443 809.136 368.569 810.448 368.351C811.757 368.134 823.329 362.457 825.729 359.618C828.132 356.78 837.956 341.717 837.63 339.313C837.63 339.313 834.732 334.949 835.416 333.636C836.1 332.328 837.637 329.054 837.637 329.054L828.567 316.283C828.567 316.283 836.697 309.076 835.416 307.767C834.135 306.458 819.016 305.802 819.697 304.164C820.381 302.525 826.932 293.683 827.915 293.683C828.897 293.683 830.532 300.56 830.532 300.56C830.532 300.56 838.721 298.595 840.03 299.578C841.342 300.56 841.342 305.802 842.321 307.767C843.307 309.732 847.237 319.23 848.872 318.9C850.51 318.574 851.819 313.988 855.423 313.662C859.026 313.335 855.423 306.458 855.423 303.507C855.423 300.56 850.51 299.578 851.167 295.978C851.819 292.374 854.766 285.824 859.352 285.171C863.938 284.515 869.833 279.603 872.78 275.673C875.727 271.743 879.331 257.989 877.692 252.747C876.054 247.509 875.727 239.976 875.727 239.976L868.742 238.228C868.742 238.228 863.721 238.884 863.721 238.228C863.721 237.576 860.443 233.864 860.443 233.864C860.443 233.864 876.548 216.615 878.103 215.959C878.685 215.713 881.324 215.376 884.436 215.085L881.896 207.233H871.577Z" fill="#F44A45"/>
<path d="M914.335 225.972L922.328 228.474L924.833 233.477L931.18 234.516V239.975L924.833 255.943L914.335 240.958L913.935 234.737L914.335 225.972Z" fill="#F44A45"/>
<path d="M804.228 437.771L807.719 439.672H812.136L816.006 440.353L819.701 437.771L823.631 432.599L827.385 428.732L827.904 426.192L831.143 423.873L833.153 422.031C833.153 422.031 829.764 420.111 828.602 420.775C827.437 421.438 825.508 422.697 825.508 422.697L818.69 429.22L816.115 430.494L811.915 435.472L808.491 436.027C808.491 436.027 804.463 437.297 804.228 437.771Z" fill="#F44A45"/>
<path d="M184.419 314.62H173.812L159.226 318.02L154.349 314.62L145.967 312.339L135.36 314.62L114.757 313.22C115.287 315.939 115.799 319.402 117.094 320.374C119.059 321.848 119.88 329.381 120.206 330.364C120.533 331.346 121.189 333.637 122.827 334.293C124.462 334.949 126.592 341.009 127.083 342.644C127.575 344.282 132.322 348.047 133.469 348.377C134.616 348.703 135.108 345.756 135.108 345.756C135.108 345.756 131.178 340.518 130.848 339.205C130.522 337.897 129.048 333.802 128.883 333.311C128.722 332.82 125.283 321.522 125.936 321.522C126.592 321.522 127.41 321.848 127.41 321.848C127.41 321.848 131.995 332.655 132.652 334.128C133.304 335.602 141.167 344.447 142.15 345.43C143.132 346.412 145.258 359.675 145.75 360.166C146.241 360.657 155.904 369.334 156.886 370.155C157.868 370.973 164.089 374.576 165.563 375.394C167.037 376.211 170.314 376.376 170.805 376.376C171.296 376.376 181.612 376.541 181.938 377.194C182.264 377.85 187.668 383.418 187.998 384.236C188.324 385.053 196.839 385.053 197.987 385.383C199.131 385.709 201.095 390.13 201.425 391.439C201.752 392.751 211.576 403.558 212.723 404.705C213.867 405.849 219.6 406.014 220.418 405.849C221.235 405.688 223.2 404.705 223.856 404.049C224.512 403.393 224.512 401.102 224.512 401.102C224.512 401.102 222.874 399.302 222.056 399.302H218.127C218.127 399.302 212.232 395.369 211.741 394.225C211.25 393.078 212.885 377.685 212.558 377.033C212.232 376.376 200.604 374.412 200.113 373.429C199.622 372.447 200.113 369.334 200.113 369.334C200.113 369.334 203.716 361.149 203.716 360.166C203.716 359.184 199.895 356.398 199.895 356.398C199.895 356.398 186.359 364.257 185.541 364.749C184.72 365.24 172.605 363.931 171.949 362.949C171.296 361.966 172.44 339.37 172.77 337.405C173.096 335.441 178.991 329.216 181.612 328.564C184.229 327.907 197.987 328.234 199.131 327.743C200.278 327.251 204.534 325.125 204.534 325.125L196.352 318.02L184.419 314.62Z" fill="#167C51"/>
<path d="M305.239 229.659L297.544 220C297.544 220 295.25 207.555 294.758 206.898C294.267 206.242 290.502 202.313 290.502 202.313C290.502 202.313 287.717 205.425 287.225 205.916L285.261 207.881L279.04 207.225C279.04 207.225 277.401 196.748 276.748 196.257C276.092 195.765 266.268 189.05 265.121 188.559C263.973 188.067 256.444 189.706 255.788 189.706C255.131 189.706 252.514 203.46 252.514 203.46C252.514 203.46 250.711 205.916 250.384 206.407C250.058 206.898 250.219 210.337 251.202 210.663C252.184 210.993 252.184 215.575 252.184 215.575L249.728 221.635C249.728 221.635 245.472 224.582 244.816 225.073C244.163 225.565 242.851 234.898 242.851 235.554C242.851 236.21 241.528 240.466 240.223 239.81C238.921 239.157 238.269 234.736 238.269 234.736L235.157 233.098C235.157 233.098 234.174 227.53 233.683 226.056C233.192 224.582 225.167 220.161 225.167 220.161C225.167 220.161 216.49 213.94 215.834 213.775C215.178 213.611 209.283 211.484 209.283 211.484L208.466 208.698C208.466 208.698 206.01 207.881 205.68 207.39C205.354 206.898 205.189 202.642 206.171 201.495C207.154 200.348 218.455 185.285 219.438 184.794C220.42 184.303 224.676 183.811 224.676 183.811C224.676 183.811 234.992 172.84 236.3 172.022C237.613 171.201 242.69 170.057 242.69 170.057C242.69 170.057 249.402 167.928 250.058 167.436C250.711 166.945 251.858 156.465 251.202 155.647C250.549 154.826 244.163 154.009 243.507 154.335C242.851 154.665 242.69 158.103 240.886 158.759C239.086 159.412 234.174 163.998 234.174 163.998C234.174 163.998 233.518 156.465 233.027 156.465C232.536 156.465 228.441 156.3 228.441 156.3C228.441 156.3 227.132 152.791 226.641 153.152C226.15 153.517 224.35 153.128 224.35 153.128C224.35 153.128 224.185 146.64 223.529 144.84C222.876 143.037 219.273 141.402 219.273 141.402C219.273 141.402 214.196 148.279 214.034 148.77C213.869 149.261 215.669 151.388 215.669 151.388L220.42 153.191C220.42 153.191 218.617 155.973 218.455 156.791C218.29 157.612 215.017 158.594 215.017 158.594L213.543 155.809L208.14 152.37C208.14 152.37 203.224 155.317 203.554 156.3C203.88 157.282 205.68 157.938 205.68 157.938L204.045 159.742C204.045 159.742 195.694 160.394 193.73 160.394C191.765 160.394 182.593 157.938 181.611 158.103C180.628 158.265 179.319 161.542 179.319 161.542C179.319 161.542 173.586 161.868 172.934 161.707C172.277 161.542 159.997 160.394 160.162 159.903C160.323 159.412 161.962 157.773 161.962 157.773L161.306 156.3L148.86 154.826C148.86 154.826 147.387 153.191 145.752 152.209C144.113 151.226 133.307 151.226 133.307 151.226C133.307 151.226 131.998 149.423 130.686 149.096C129.377 148.77 115.293 149.753 115.293 149.753C115.293 149.753 108.907 154.009 107.925 154.174C106.942 154.335 97.2829 153.352 97.2829 153.352C97.2829 153.352 91.3883 149.261 89.7497 149.096C88.1112 148.932 76.322 147.788 75.3396 147.458C74.3571 147.132 70.7572 145.658 70.7572 145.658C70.7572 145.658 67.9714 146.64 67.4801 146.64C66.9889 146.64 65.0241 145.002 63.7153 144.184C62.4031 143.367 47.014 142.219 45.7017 142.876C44.393 143.528 40.7896 145.332 40.7896 145.332C40.7896 145.332 32.7652 148.114 32.1126 148.114C31.4565 148.114 30.1478 152.37 28.6741 152.861C27.2005 153.352 21.3059 153.682 21.141 154.335C20.9761 154.991 20.1585 157.447 20.1585 157.447C20.1585 157.447 24.9058 160.233 25.2356 160.886C25.5619 161.542 24.7444 163.998 25.8882 164.489C27.0356 164.98 23.1058 165.963 22.2883 165.798C21.4673 165.636 16.5551 167.436 16.5551 167.436C16.5551 167.436 13.4464 170.875 13.2815 171.531C13.1166 172.184 13.2815 173.496 13.2815 173.496C13.2815 173.496 23.762 173.331 23.762 174.313C23.762 175.296 23.2707 178.078 23.2707 178.078C23.2707 178.078 16.5551 180.534 16.2288 181.517C15.9025 182.499 9.5132 187.415 9.1869 188.232C8.86059 189.05 9.02199 197.565 10.0044 198.221C10.9904 198.874 12.2991 199.695 12.2991 199.695C12.2991 199.695 12.2991 202.478 12.464 203.134C12.6254 203.786 23.762 204.607 23.762 204.607C23.762 204.607 24.2532 209.028 23.2707 209.355C22.2883 209.681 14.9201 212.793 12.7903 213.284C10.6605 213.775 0.509928 222.291 0.509928 222.291C0.509928 222.291 -0.63741 223.273 0.509928 223.438C1.65376 223.6 10.6605 218.526 11.1517 218.526C11.643 218.526 18.0288 218.196 20.3234 218.035C22.6146 217.87 29.4916 212.14 30.4741 211.154C31.4565 210.172 33.7477 206.081 33.7477 206.081C33.7477 206.081 38.0072 204.442 39.151 203.951C40.2984 203.46 41.6071 200.678 41.6071 200.678L48.3227 191.671C48.3227 191.671 51.5963 192.818 51.1051 193.309C50.6139 193.801 43.9018 199.53 44.393 199.857C44.8842 200.186 42.9194 202.969 43.9018 202.642C44.8842 202.313 51.27 198.874 52.5788 198.874C53.891 198.874 55.691 198.548 55.691 198.548C55.691 198.548 57.6558 195.274 58.312 195.274C58.9646 195.274 61.5856 198.222 62.2417 198.383C62.8943 198.548 77.1431 198.057 78.6167 198.548C80.0903 199.039 83.0376 202.151 83.0376 202.151C83.0376 202.151 88.2761 202.478 89.5848 202.478C90.8971 202.478 92.8619 205.099 92.8619 205.099C92.8619 205.099 97.6092 217.053 98.7565 218.688C99.9039 220.326 101.539 236.371 102.03 237.028C102.521 237.684 104.816 238.175 105.798 238.992C106.781 239.81 107.925 244.069 108.581 244.396C109.237 244.726 111.363 248.164 111.363 248.164C111.363 248.164 107.925 251.603 107.272 252.094C106.616 252.585 107.107 267.974 106.29 269.121C105.469 270.269 102.36 273.216 102.36 274.198C102.36 275.181 101.539 287.626 102.03 290.573C102.521 293.521 108.09 308.584 109.728 308.748C111.363 308.913 112.675 308.422 113.819 310.057C114.209 310.615 114.486 311.819 114.76 313.219L135.359 314.618L145.966 312.338L154.348 314.618L159.225 318.018L173.811 314.618H184.421L196.354 318.018L204.536 325.123C204.536 325.123 213.052 325.123 214.196 325.941C215.343 326.759 218.617 338.06 219.438 339.042C220.255 340.025 224.185 343.298 224.511 342.642C224.841 341.99 226.641 338.06 226.641 338.06C226.641 338.06 225.002 327.088 225.002 326.432C225.002 325.776 225.659 321.685 225.332 320.703C225.002 319.72 235.648 311.531 237.121 310.548C238.595 309.566 240.725 306.949 240.725 306.949C240.725 306.949 243.342 297.286 244.163 296.794C244.981 296.303 252.349 286.314 253.331 285.988C254.314 285.661 259.391 282.875 260.373 282.223C261.356 281.567 261.682 278.784 262.338 277.802C262.991 276.819 268.559 272.725 268.559 272.725C268.559 272.725 273.801 273.216 274.619 272.725C275.436 272.234 279.04 272.725 279.04 272.725L288.208 266.992C288.208 266.992 280.84 260.444 279.857 260.606C278.875 260.771 278.713 254.711 279.205 253.894C279.696 253.076 281.169 250.455 281.169 250.455C281.169 250.455 281.004 247.673 281.661 247.343C282.313 247.017 289.681 246.199 289.681 246.199C289.681 246.199 293.615 247.343 294.597 247.343C295.58 247.343 308.677 237.845 308.677 237.845C308.677 237.845 308.351 232.28 308.677 231.789C309.004 231.298 305.239 229.659 305.239 229.659Z" fill="#F44A45"/>
<path d="M473.674 252.082L479.853 253.854L483.084 252.97C483.084 252.97 485.624 253.665 487.105 252.97L488.586 252.272V248.198L486.259 245.528L481.088 243.584C481.088 243.584 475.053 250.535 473.674 252.082Z" fill="#F44A45"/>
<g filter="url(#filter0_d)">
<rect x="54" y="45" width="85.0619" height="223" rx="5" fill="white"/>
</g>
<line x1="101.777" y1="174.242" x2="93.5815" y2="174.242" stroke="#A2A5B2" stroke-linecap="round"/>
<line x1="101.777" y1="119.067" x2="93.5815" y2="119.067" stroke="#A2A5B2" stroke-linecap="round"/>
<path d="M83.886 81.7839H111.474" stroke="#687089" stroke-width="1.5" stroke-linecap="round" stroke-linejoin="round"/>
<path d="M97.6799 67.9895V95.5771" stroke="#687089" stroke-width="1.5" stroke-linecap="round" stroke-linejoin="round"/>
<path d="M83.8862 146.154H111.474" stroke="#687089" stroke-width="1.5" stroke-linecap="round" stroke-linejoin="round"/>
<path d="M93.9138 198.182C94.6816 196.248 97.4196 196.248 98.1874 198.182L105.752 217.239C106.351 218.749 105.239 220.387 103.615 220.387H88.4863C86.8624 220.387 85.7504 218.749 86.3495 217.239L93.9138 198.182Z" fill="#F44A45"/>
<path d="M98.1873 244.891C97.4194 246.826 94.6815 246.826 93.9137 244.891L86.3493 225.834C85.7503 224.325 86.8623 222.687 88.4861 222.687L103.615 222.687C105.239 222.687 106.351 224.325 105.752 225.834L98.1873 244.891Z" fill="#A2A5B2"/>
<defs>
<filter id="filter0_d" x="4" y="0" width="185.062" height="323" filterUnits="userSpaceOnUse" color-interpolation-filters="sRGB">
<feFlood flood-opacity="0" result="BackgroundImageFix"/>
<feColorMatrix in="SourceAlpha" type="matrix" values="0 0 0 0 0 0 0 0 0 0 0 0 0 0 0 0 0 0 127 0"/>
<feOffset dy="5"/>
<feGaussianBlur stdDeviation="25"/>
<feColorMatrix type="matrix" values="0 0 0 0 0.408333 0 0 0 0 0.130573 0 0 0 0 0.11059 0 0 0 0.1 0"/>
<feBlend mode="normal" in2="BackgroundImageFix" result="effect1_dropShadow"/>
<feBlend mode="normal" in="SourceGraphic" in2="effect1_dropShadow" result="shape"/>
</filter>
</defs>
</svg>
